<svg xmlns="http://www.w3.org/2000/svg" width="300" height="300" viewBox="0 0 300 300"><g id="group_1" data-name="group_1" transform="translate(-1030 -1009)"><rect id="rect_1" data-name="rect_1" width="300" height="300" transform="translate(1030 1009)" fill="#fafafa"/><g id="group_2" data-name="group_2" transform="translate(1119.005 1073.105)"><rect id="rect_2" data-name="rect_2" width="123" height="105" transform="translate(-0.005 -0.105)" fill="#c3c3c3"/><path id="path_1" data-name="path_1" d="M112.223,76.371h0v0L92.131,44.61,68.092,71.859l-32.4-53.8L0,58.561V0H112.223ZM81.926,8.716a9.075,9.075,0,1,0,3.543.715A9.045,9.045,0,0,0,81.926,8.716Z" transform="translate(5.57 6.222)" fill="#fafafa"/><path id="path_2" data-name="path_2" d="M-110.88-21.621h-3.931L-122.5-34.985v13.364h-3.663V-40.436h4.123l7.493,13.135V-40.436h3.663Zm15.757-12.152a8.119,8.119,0,0,1,1.761,5.221,8.065,8.065,0,0,1-1.761,5.24,6.472,6.472,0,0,1-5.348,2.176,6.472,6.472,0,0,1-5.348-2.176,8.065,8.065,0,0,1-1.762-5.24,8.119,8.119,0,0,1,1.762-5.221,6.428,6.428,0,0,1,5.348-2.208A6.428,6.428,0,0,1-95.123-33.773Zm-5.361.868a2.907,2.907,0,0,0-2.457,1.13,5.227,5.227,0,0,0-.862,3.223,5.256,5.256,0,0,0,.862,3.229,2.9,2.9,0,0,0,2.457,1.136,2.883,2.883,0,0,0,2.451-1.136,5.285,5.285,0,0,0,.855-3.229,5.256,5.256,0,0,0-.855-3.223A2.89,2.89,0,0,0-100.484-32.9Zm20-2.629v13.913h-3.689V-35.534Zm0-5.016v3.357h-3.689v-3.357ZM-68.363-31.7a1.782,1.782,0,0,0-1.8-1.008A2.148,2.148,0,0,0-72.256-31.7a3.885,3.885,0,0,0-.294,1.71v8.374h-3.689V-35.509H-72.7v2.03a5.855,5.855,0,0,1,1.276-1.545,4.368,4.368,0,0,1,2.744-.817,4.34,4.34,0,0,1,2.578.7,4.084,4.084,0,0,1,1.2,1.672,4.626,4.626,0,0,1,1.774-1.8,5.414,5.414,0,0,1,2.5-.574,4.843,4.843,0,0,1,1.813.357,4.044,4.044,0,0,1,1.621,1.251,4,4,0,0,1,.791,1.787,12.352,12.352,0,0,1,.128,2.055l-.026,8.769h-3.727V-30.48a2.908,2.908,0,0,0-.255-1.3,1.814,1.814,0,0,0-1.787-.97A2.091,2.091,0,0,0-64.151-31.5a3.928,3.928,0,0,0-.294,1.6v8.284h-3.663v-8.284A4.653,4.653,0,0,0-68.363-31.7Zm16.74-2.323q1.442-1.838,4.953-1.838a8.8,8.8,0,0,1,4.059.906,3.479,3.479,0,0,1,1.774,3.421v6.382q0,.664.026,1.608a2.022,2.022,0,0,0,.217.97,1.3,1.3,0,0,0,.536.421v.536h-3.957a4.052,4.052,0,0,1-.23-.791q-.064-.37-.1-.842a7.474,7.474,0,0,1-1.736,1.391,5.222,5.222,0,0,1-2.655.677,4.565,4.565,0,0,1-3.121-1.079,3.847,3.847,0,0,1-1.232-3.057,3.968,3.968,0,0,1,1.978-3.714,8.785,8.785,0,0,1,3.191-.894l1.238-.153a5.678,5.678,0,0,0,1.442-.319,1.094,1.094,0,0,0,.779-1.034,1.227,1.227,0,0,0-.594-1.181,3.708,3.708,0,0,0-1.742-.325,2.27,2.27,0,0,0-1.825.638,2.653,2.653,0,0,0-.511,1.276h-3.51A5.339,5.339,0,0,1-51.623-34.028Zm2.706,9.778a1.9,1.9,0,0,0,1.251.421,3.705,3.705,0,0,0,2.164-.689,2.94,2.94,0,0,0,1.028-2.515v-1.353a3.953,3.953,0,0,1-.7.351,5.818,5.818,0,0,1-.964.249l-.817.153a5.275,5.275,0,0,0-1.647.5,1.669,1.669,0,0,0-.842,1.545A1.6,1.6,0,0,0-48.917-24.251Zm16.025,5.068a3.075,3.075,0,0,0,1.978.5A2.658,2.658,0,0,0-28.284-20a6.659,6.659,0,0,0,.434-2.834v-.894a4.436,4.436,0,0,1-1.123,1.34,4.517,4.517,0,0,1-2.821.83,5.338,5.338,0,0,1-4.282-1.883,7.612,7.612,0,0,1-1.6-5.1,8.6,8.6,0,0,1,1.545-5.214,5.1,5.1,0,0,1,4.378-2.113,4.792,4.792,0,0,1,1.825.319,4.371,4.371,0,0,1,2.144,2.017v-2h3.536v13.2a7.392,7.392,0,0,1-.906,4.059q-1.557,2.349-5.974,2.349a8.14,8.14,0,0,1-4.353-1.047A3.862,3.862,0,0,1-37.347-20.1h3.957A1.638,1.638,0,0,0-32.892-19.183Zm-.613-7.186a2.662,2.662,0,0,0,2.655,1.761,2.81,2.81,0,0,0,2.157-.964,4.462,4.462,0,0,0,.881-3.07,4.7,4.7,0,0,0-.836-3.012,2.733,2.733,0,0,0-2.24-1.034,2.64,2.64,0,0,0-2.642,1.8,6.383,6.383,0,0,0-.383,2.361A5.389,5.389,0,0,0-33.5-26.369Zm25.343.664a4.615,4.615,0,0,1-1.289,2.515,6.316,6.316,0,0,1-5,2.03,7.056,7.056,0,0,1-4.685-1.71q-2.03-1.71-2.03-5.565a7.735,7.735,0,0,1,1.832-5.54A6.263,6.263,0,0,1-14.582-35.9a7.292,7.292,0,0,1,3.127.651,5.478,5.478,0,0,1,2.3,2.055A7.012,7.012,0,0,1-8.1-30.326a18.547,18.547,0,0,1,.115,2.757h-9.522a3.458,3.458,0,0,0,1.315,2.936,3.1,3.1,0,0,0,1.813.523,2.609,2.609,0,0,0,1.825-.638,3.031,3.031,0,0,0,.677-.957Zm-3.6-4.263a3.167,3.167,0,0,0-.874-2.189,2.715,2.715,0,0,0-1.947-.747,2.471,2.471,0,0,0-1.959.791,3.95,3.95,0,0,0-.874,2.144ZM-123.408-5.552q1.442-1.838,4.953-1.838a8.8,8.8,0,0,1,4.059.906,3.479,3.479,0,0,1,1.774,3.421V3.319q0,.664.026,1.608a2.022,2.022,0,0,0,.217.97,1.3,1.3,0,0,0,.536.421v.536H-115.8a4.051,4.051,0,0,1-.23-.791q-.064-.37-.1-.842a7.474,7.474,0,0,1-1.736,1.391,5.222,5.222,0,0,1-2.655.677,4.565,4.565,0,0,1-3.121-1.079,3.847,3.847,0,0,1-1.232-3.057A3.968,3.968,0,0,1-122.9-.561a8.785,8.785,0,0,1,3.191-.894l1.238-.153a5.678,5.678,0,0,0,1.442-.319,1.094,1.094,0,0,0,.779-1.034,1.227,1.227,0,0,0-.594-1.181,3.708,3.708,0,0,0-1.742-.325,2.27,2.27,0,0,0-1.825.638,2.653,2.653,0,0,0-.511,1.276h-3.51A5.339,5.339,0,0,1-123.408-5.552Zm2.706,9.778a1.9,1.9,0,0,0,1.251.421,3.705,3.705,0,0,0,2.164-.689,2.94,2.94,0,0,0,1.028-2.515V.09a3.954,3.954,0,0,1-.7.351,5.818,5.818,0,0,1-.964.249l-.817.153a5.275,5.275,0,0,0-1.647.5,1.669,1.669,0,0,0-.842,1.545A1.6,1.6,0,0,0-120.7,4.225Zm10.728-11.284h4.085l2.9,10.263,2.961-10.263h3.906l-5.016,13.913h-3.842Zm17.212,1.506q1.442-1.838,4.953-1.838a8.8,8.8,0,0,1,4.059.906,3.479,3.479,0,0,1,1.774,3.421V3.319q0,.664.026,1.608a2.022,2.022,0,0,0,.217.97,1.3,1.3,0,0,0,.536.421v.536h-3.957a4.051,4.051,0,0,1-.23-.791q-.064-.37-.1-.842a7.474,7.474,0,0,1-1.736,1.391,5.222,5.222,0,0,1-2.655.677A4.565,4.565,0,0,1-93,6.21,3.847,3.847,0,0,1-94.23,3.153,3.968,3.968,0,0,1-92.251-.561a8.785,8.785,0,0,1,3.191-.894l1.238-.153a5.678,5.678,0,0,0,1.442-.319A1.094,1.094,0,0,0-85.6-2.961a1.227,1.227,0,0,0-.594-1.181,3.708,3.708,0,0,0-1.742-.325,2.27,2.27,0,0,0-1.825.638,2.653,2.653,0,0,0-.511,1.276h-3.51A5.339,5.339,0,0,1-92.762-5.552Zm2.706,9.778a1.9,1.9,0,0,0,1.251.421,3.705,3.705,0,0,0,2.164-.689,2.94,2.94,0,0,0,1.028-2.515V.09a3.954,3.954,0,0,1-.7.351,5.818,5.818,0,0,1-.964.249l-.817.153a5.275,5.275,0,0,0-1.647.5,1.669,1.669,0,0,0-.842,1.545A1.6,1.6,0,0,0-90.056,4.225ZM-74.222-7.059V6.855h-3.689V-7.059Zm0-5.016v3.357h-3.689v-3.357Zm4.384.115H-66.2V6.855h-3.638Zm8.494,6.408Q-59.9-7.39-56.391-7.39a8.8,8.8,0,0,1,4.059.906,3.479,3.479,0,0,1,1.774,3.421V3.319q0,.664.026,1.608a2.022,2.022,0,0,0,.217.97,1.3,1.3,0,0,0,.536.421v.536h-3.957a4.052,4.052,0,0,1-.23-.791q-.064-.37-.1-.842A7.474,7.474,0,0,1-55.8,6.612a5.222,5.222,0,0,1-2.655.677A4.565,4.565,0,0,1-61.58,6.21a3.847,3.847,0,0,1-1.232-3.057A3.968,3.968,0,0,1-60.834-.561a8.785,8.785,0,0,1,3.191-.894l1.238-.153a5.678,5.678,0,0,0,1.442-.319,1.094,1.094,0,0,0,.779-1.034,1.227,1.227,0,0,0-.594-1.181,3.708,3.708,0,0,0-1.742-.325,2.27,2.27,0,0,0-1.825.638,2.653,2.653,0,0,0-.511,1.276h-3.51A5.339,5.339,0,0,1-61.344-5.552Zm2.706,9.778a1.9,1.9,0,0,0,1.251.421,3.705,3.705,0,0,0,2.164-.689A2.94,2.94,0,0,0-54.2,1.443V.09a3.953,3.953,0,0,1-.7.351,5.818,5.818,0,0,1-.964.249l-.817.153a5.275,5.275,0,0,0-1.647.5,1.669,1.669,0,0,0-.842,1.545A1.6,1.6,0,0,0-58.638,4.225Zm19.65,3a4.964,4.964,0,0,1-2.77-.689,5.532,5.532,0,0,1-1.353-1.43V6.855h-3.561V-11.935h3.625v6.689a5.308,5.308,0,0,1,1.519-1.481,4.512,4.512,0,0,1,2.5-.638,5.153,5.153,0,0,1,4.3,1.978A8.032,8.032,0,0,1-33.18-.281a8.977,8.977,0,0,1-1.532,5.374A4.967,4.967,0,0,1-38.988,7.225ZM-37,.1a6.733,6.733,0,0,0-.383-2.451A2.667,2.667,0,0,0-40.06-4.187a2.707,2.707,0,0,0-2.719,1.8A6.755,6.755,0,0,0-43.162.09a5.187,5.187,0,0,0,.791,2.961,2.71,2.71,0,0,0,2.412,1.174,2.5,2.5,0,0,0,2.183-1.136A5.187,5.187,0,0,0-37,.1Zm7.281-12.062h3.638V6.855h-3.638ZM-9.835,2.77a4.615,4.615,0,0,1-1.289,2.515,6.316,6.316,0,0,1-5,2.03A7.056,7.056,0,0,1-20.813,5.6q-2.03-1.71-2.03-5.565A7.735,7.735,0,0,1-21.011-5.5a6.263,6.263,0,0,1,4.755-1.927,7.292,7.292,0,0,1,3.127.651,5.478,5.478,0,0,1,2.3,2.055A7.012,7.012,0,0,1-9.771-1.851,18.548,18.548,0,0,1-9.657.906h-9.522a3.458,3.458,0,0,0,1.315,2.936,3.1,3.1,0,0,0,1.813.523,2.609,2.609,0,0,0,1.825-.638,3.031,3.031,0,0,0,.677-.957Zm-3.6-4.263a3.167,3.167,0,0,0-.874-2.189,2.715,2.715,0,0,0-1.947-.747,2.471,2.471,0,0,0-1.959.791,3.95,3.95,0,0,0-.874,2.144Z" transform="translate(128.462 164.467)" fill="#c3c3c3"/></g></g></svg>