<?xml version="1.0" encoding="utf-8"?>
<!-- Generator: Adobe Illustrator 24.3.0, SVG Export Plug-In . SVG Version: 6.00 Build 0)  -->
<svg version="1.1" id="レイヤー_1" xmlns="http://www.w3.org/2000/svg" xmlns:xlink="http://www.w3.org/1999/xlink" x="0px"
	 y="0px" viewBox="0 0 34 34" style="enable-background:new 0 0 34 34;" xml:space="preserve">
<style type="text/css">
	.st0{fill:#CCCCCC;}
</style>
<path class="st0" d="M17,1c8.8,0,16,7.2,16,16s-7.2,16-16,16S1,25.8,1,17S8.2,1,17,1 M17,0C7.6,0,0,7.6,0,17s7.6,17,17,17
	s17-7.6,17-17S26.4,0,17,0L17,0z M24.8,11.6h-3.1l-0.8-1.7c-0.1-0.2-0.3-0.3-0.4-0.3h-6.9c-0.2,0-0.4,0.1-0.4,0.3l-0.8,1.7H9.2
	c-1.1,0-2,0.9-2,2v8.8c0,1.1,0.9,2,2,2h15.7c1.1,0,2-0.9,2-2v-8.8C26.8,12.5,25.9,11.6,24.8,11.6z M25.8,22.4c0,0.5-0.4,1-1,1H9.2
	c-0.5,0-1-0.4-1-1v-8.8c0-0.5,0.4-1,1-1h3.4c0.2,0,0.4-0.1,0.4-0.3l0.8-1.7h6.3l0.8,1.7c0.1,0.2,0.3,0.3,0.4,0.3h3.4
	c0.5,0,1,0.4,1,1V22.4z M17,14.1c-1.9,0-3.4,1.5-3.4,3.4c0,1.9,1.5,3.4,3.4,3.4s3.4-1.5,3.4-3.4C20.4,15.6,18.9,14.1,17,14.1z
	 M17,19.9c-1.4,0-2.4-1.1-2.4-2.4c0-1.4,1.1-2.4,2.4-2.4s2.4,1.1,2.4,2.4C19.4,18.8,18.4,19.9,17,19.9z"/>
</svg>
