<?xml version="1.0" encoding="utf-8"?>
<!-- Generator: Adobe Illustrator 24.3.0, SVG Export Plug-In . SVG Version: 6.00 Build 0)  -->
<svg version="1.1" id="Layer_1" xmlns="http://www.w3.org/2000/svg" xmlns:xlink="http://www.w3.org/1999/xlink" x="0px" y="0px"
	 viewBox="0 0 13 16" style="enable-background:new 0 0 13 16;" xml:space="preserve">
<path d="M9,2h3c0.6,0,1,0.4,1,1v1H0V3c0-0.6,0.5-1,1-1h3c0.2-1.1,1.3-2,2.5-2S8.8,0.9,9,2z M5,2h3C7.8,1.4,7.1,1,6.5,1S5.2,1.4,5,2z
	 M1,5h11l-0.9,10.1c0,0.5-0.5,0.9-1,0.9H2.9c-0.5,0-0.9-0.4-1-0.9L1,5z"/>
</svg>
